HIERARCHY
ROOT Hips
{
  OFFSET 39.4792 99.9216 0.871624
  CHANNELS 6 Xposition Yposition Zposition Zrotation Xrotation Yrotation
  JOINT spine
  {
    OFFSET 0 8.81705 0.507024
    CHANNELS 3 Zrotation Xrotation Yrotation
    JOINT spine1
    {
      OFFSET 0 10.7766 0
      CHANNELS 3 Zrotation Xrotation Yrotation
      JOINT spine2
      {
        OFFSET 0 10.3259 0
        CHANNELS 3 Zrotation Xrotation Yrotation
        JOINT Neck
        {
          OFFSET 0 26.511 1.26395
          CHANNELS 3 Zrotation Xrotation Yrotation
          JOINT Head
          {
            OFFSET 0 8.00966 0
            CHANNELS 3 Zrotation Xrotation Yrotation
            End Site
            {
              OFFSET 0 19.3879 -6.39386
            }
          }
        }
        JOINT RightShoulder
        {
          OFFSET -4.34795 11.1512 -0.605422
          CHANNELS 3 Zrotation Xrotation Yrotation
          JOINT RightArm
          {
            OFFSET 0 14.6258 0
            CHANNELS 3 Zrotation Xrotation Yrotation
            JOINT RightArmRoll
            {
              OFFSET 0 7.3834 0
              CHANNELS 3 Zrotation Xrotation Yrotation
              JOINT RightForeArm
              {
                OFFSET 0 21.5052 0
                CHANNELS 3 Zrotation Xrotation Yrotation
                JOINT RightForeArmRoll
                {
                  OFFSET 0 8.28532 0
                  CHANNELS 3 Zrotation Xrotation Yrotation
                  JOINT RightHand
                  {
                    OFFSET 0 16.6268 0
                    CHANNELS 3 Zrotation Xrotation Yrotation
                    End Site
                    {
                      OFFSET 0 0 0
                    }
                  }
                }
              }
            }
          }
        }
        JOINT LeftShoulder
        {
          OFFSET 4.34795 11.1512 -0.605422
          CHANNELS 3 Zrotation Xrotation Yrotation
          JOINT LeftArm
          {
            OFFSET 0 14.6258 0
            CHANNELS 3 Zrotation Xrotation Yrotation
            JOINT LeftArmRoll
            {
              OFFSET 0 7.3834 0
              CHANNELS 3 Zrotation Xrotation Yrotation
              JOINT LeftForeArm
              {
                OFFSET 0 21.5052 0
                CHANNELS 3 Zrotation Xrotation Yrotation
                JOINT LeftForeArmRoll
                {
                  OFFSET 0 8.28532 0
                  CHANNELS 3 Zrotation Xrotation Yrotation
                  JOINT LeftHand
                  {
                    OFFSET 0 16.6268 0
                    CHANNELS 3 Zrotation Xrotation Yrotation
                    End Site
                    {
                      OFFSET 0 0 0
                    }
                  }
                }
              }
            }
          }
        }
      }
    }
  }
  JOINT RightUpLeg
  {
    OFFSET -7.8151 -1.43309 -1.20217
    CHANNELS 3 Zrotation Xrotation Yrotation
    JOINT RightUpLegRoll
    {
      OFFSET 0 19.4959 0
      CHANNELS 3 Zrotation Xrotation Yrotation
      JOINT RightLeg
      {
        OFFSET 0 -24.1427 0
        CHANNELS 3 Zrotation Xrotation Yrotation
        JOINT RightLegRoll
        {
          OFFSET 0 24.2217 0
          CHANNELS 3 Zrotation Xrotation Yrotation
          JOINT RightFoot
          {
            OFFSET 0 20.1605 0
            CHANNELS 3 Zrotation Xrotation Yrotation
            JOINT RightToeBase
            {
              OFFSET 0 16.8532 0
              CHANNELS 3 Zrotation Xrotation Yrotation
              End Site
              {
                OFFSET 0.00714343 8.16187 -0.94078
              }
            }
          }
        }
      }
    }
  }
  JOINT LeftUpLeg
  {
    OFFSET 7.8151 -1.43309 -1.20217
    CHANNELS 3 Zrotation Xrotation Yrotation
    JOINT LeftUpLegRoll
    {
      OFFSET 0 19.496 0
      CHANNELS 3 Zrotation Xrotation Yrotation
      JOINT LeftLeg
      {
        OFFSET 0 24.1426 0
        CHANNELS 3 Zrotation Xrotation Yrotation
        JOINT LeftLegRoll
        {
          OFFSET 0 24.4456 0
          CHANNELS 3 Zrotation Xrotation Yrotation
          JOINT LeftFoot
          {
            OFFSET 0 19.9366 0
            CHANNELS 3 Zrotation Xrotation Yrotation
            JOINT LeftToeBase
            {
              OFFSET 0 16.8532 0
              CHANNELS 3 Zrotation Xrotation Yrotation
              End Site
              {
                OFFSET -0.0320138 8.16187 -0.94078
              }
            }
          }
        }
      }
    }
  }
}
MOTION
Frames: 11
Frame Time: 0.00208333
49.7409 100.33 10.7781 0.0859887 -0.132751 1.45921 0.129797 -2.12213 0.0121227 0.249452 -0.244361 -0.0120007 0.249659 1.40069 -0.0161779 -4.03499 22.1781 2.82699 -0.466935 -0.996671 1.49179 67.8456 -3.29755 -2.80418 106.748 19.3139 8.3871 -1.90939e-006 1.78988e-007 9.68047e-006 16.2538 2.07196 -0.344358 -3.82681e-006 -8.36257e-007 -3.00499 8.02905 -4.95144 0.697702 -65.6358 -2.80129 2.36495 -106.583 14.6569 -3.79953 -3.64406e-006 -1.29827e-006 7.34065e-007 -13.3147 6.10006 1.08866 1.87239e-006 -9.78929e-007 2.99999 -8.02888 -4.95144 -0.697669 178.398 1.81017 -0.595741 180 7.01564e-015 179 178.287 6.12903 179.71 -1.25426e-006 -2.5774e-006 0.0356502 -17.9437 67.6106 19.2181 8.1291 25.2331 -3.48459 -177.669 1.3661 2.40068 4.54188e-006 -4.6773e-006 -1.04741 -2.65446 -7.25006 0.114228 -1.70935e-007 -6.67351e-007 -0.111041 19.3645 68.8687 -20.2767 -8.13708 25.3477 3.32168 
49.7493 100.33 10.7748 0.0854743 -0.128697 1.46114 0.130582 -2.11969 0.0124875 0.252157 -0.239268 -0.00937601 0.252334 1.40579 -0.0135974 -4.03465 22.2057 2.81783 -0.473836 -1.03212 1.48072 67.8305 -3.30337 -2.80596 106.758 19.3022 8.30303 -1.90939e-006 1.78988e-007 9.68047e-006 16.3066 2.16586 -0.35784 -3.82681e-006 -8.36257e-007 -3.00499 8.02905 -4.95144 0.697702 -65.6547 -2.78227 2.35642 -106.543 14.659 -3.80575 -3.64406e-006 -1.29827e-006 7.34065e-007 -13.3196 6.13182 1.09299 1.87239e-006 -9.78929e-007 2.99999 -8.02888 -4.95144 -0.697669 178.398 1.81718 -0.597003 180 7.01564e-015 179 178.288 6.12762 179.71 -1.25426e-006 -2.5774e-006 0.0356502 -17.9384 67.607 19.2141 8.1291 25.2331 -3.48459 -177.671 1.3759 2.40262 4.54188e-006 -4.6773e-006 -1.04741 -2.65321 -7.25359 0.114532 -1.70935e-007 -6.67351e-007 -0.111301 19.3623 68.8665 -20.2744 -8.13708 25.3477 3.32158 
49.7566 100.337 10.7695 0.0849254 -0.124854 1.46295 0.131367 -2.11724 0.0128337 0.25491 -0.23415 -0.00673554 0.255055 1.41091 -0.0110019 -4.03393 22.2343 2.80848 -0.481581 -1.06865 1.46944 67.8158 -3.30911 -2.80773 106.768 19.2908 8.21984 -1.90939e-006 1.78988e-007 9.68047e-006 16.3591 2.25871 -0.371112 -3.82681e-006 -8.36257e-007 -3.00499 8.02905 -4.95144 0.697702 -65.6738 -2.76287 2.34772 -106.504 14.6618 -3.81359 -3.64406e-006 -1.29827e-006 7.34065e-007 -13.3231 6.16089 1.09696 1.87239e-006 -9.78929e-007 2.99999 -8.02888 -4.95144 -0.697669 178.398 1.82384 -0.598203 180 7.01564e-015 179 178.289 6.12584 179.71 -1.25426e-006 -2.5774e-006 0.0356502 -17.9329 67.6032 19.2099 8.1291 25.2331 -3.48459 -177.672 1.38543 2.40458 4.54188e-006 -4.6773e-006 -1.04741 -2.65191 -7.25712 0.114846 -1.70935e-007 -6.67351e-007 -0.111579 19.3602 68.8643 -20.2721 -8.13708 25.3477 3.32146 
49.7512 100.334 10.7567 0.0843521 -0.121159 1.46469 0.132153 -2.11479 0.013167 0.257696 -0.229014 -0.00408404 0.257811 1.41605 -0.0083957 -4.03295 22.2634 2.799 -0.489923 -1.10594 1.45803 67.8014 -3.31479 -2.8095 106.778 19.2796 8.13726 -1.90939e-006 1.78988e-007 9.68047e-006 16.4114 2.35083 -0.384237 -3.82681e-006 -8.36257e-007 -3.00499 8.02905 -4.95144 0.697702 -65.6932 -2.74321 2.33889 -106.465 14.6653 -3.82258 -3.64406e-006 -1.29827e-006 7.34065e-007 -13.3257 6.18808 1.10066 1.87239e-006 -9.78929e-007 2.99999 -8.02888 -4.95144 -0.697669 178.397 1.83024 -0.599359 180 7.01564e-015 179 178.29 6.12379 179.71 -1.25426e-006 -2.5774e-006 0.0356502 -17.9273 67.5993 19.2056 8.1291 25.2331 -3.48459 -177.673 1.39476 2.40654 4.54188e-006 -4.6773e-006 -1.04741 -2.65057 -7.26066 0.115168 -1.70935e-007 -6.67351e-007 -0.11187 19.358 68.8622 -20.2699 -8.13708 25.3477 3.32134 
49.7482 100.332 10.7505 0.0837649 -0.117547 1.46637 0.13294 -2.11233 0.0134929 0.260502 -0.223868 -0.00142625 0.260585 1.42119 -0.00578346 -4.03181 22.2928 2.78945 -0.498613 -1.14366 1.44653 67.7872 -3.32044 -2.81125 106.787 19.2686 8.05505 -1.90939e-006 1.78988e-007 9.68047e-006 16.4636 2.44254 -0.397281 -3.82681e-006 -8.36257e-007 -3.00499 8.02905 -4.95144 0.697702 -65.7126 -2.72341 2.32998 -106.426 14.6691 -3.83222 -3.64406e-006 -1.29827e-006 7.34065e-007 -13.3277 6.2142 1.10422 1.87239e-006 -9.78929e-007 2.99999 -8.02888 -4.95144 -0.697669 178.397 1.8365 -0.60049 180 7.01564e-015 179 178.292 6.1216 179.71 -1.25426e-006 -2.5774e-006 0.0356502 -17.9217 67.5953 19.2012 8.1291 25.2331 -3.48459 -177.674 1.40398 2.4085 4.54188e-006 -4.6773e-006 -1.04741 -2.64921 -7.26421 0.115494 -1.70935e-007 -6.67351e-007 -0.112167 19.3559 68.8601 -20.2676 -8.13708 25.3477 3.32121 
49.7485 100.333 10.7552 0.0831741 -0.113957 1.46805 0.133727 -2.10987 0.013817 0.263312 -0.21872 0.00123311 0.263363 1.42634 -0.0031697 -4.03062 22.3223 2.77987 -0.5074 -1.1815 1.43502 67.773 -3.32608 -2.81301 106.796 19.2576 7.97294 -1.90939e-006 1.78988e-007 9.68047e-006 16.5158 2.53413 -0.410306 -3.82681e-006 -8.36257e-007 -3.00499 8.02905 -4.95144 0.697702 -65.732 -2.70356 2.32106 -106.387 14.6729 -3.84202 -3.64406e-006 -1.29827e-006 7.34065e-007 -13.3296 6.24005 1.10775 1.87239e-006 -9.78929e-007 2.99999 -8.02888 -4.95144 -0.697669 178.397 1.84272 -0.601615 180 7.01564e-015 179 178.293 6.11935 179.71 -1.25426e-006 -2.5774e-006 0.0356502 -17.916 67.5913 19.1968 8.1291 25.2331 -3.48459 -177.675 1.41318 2.41047 4.54188e-006 -4.6773e-006 -1.04741 -2.64785 -7.26775 0.115821 -1.70935e-007 -6.67351e-007 -0.112466 19.3537 68.8579 -20.2653 -8.13708 25.3477 3.32109 
49.7519 100.331 10.747 0.0825899 -0.110325 1.46975 0.134514 -2.10741 0.0141447 0.266112 -0.213576 0.00388933 0.266131 1.43149 -0.000558947 -4.02949 22.3517 2.77033 -0.516037 -1.21912 1.42355 67.7587 -3.33173 -2.81477 106.805 19.2465 7.89066 -1.90939e-006 1.78988e-007 9.68047e-006 16.5681 2.62594 -0.423376 -3.82681e-006 -8.36257e-007 -3.00499 8.02905 -4.95144 0.697702 -65.7514 -2.68379 2.31218 -106.349 14.6766 -3.8515 -3.64406e-006 -1.29827e-006 7.34065e-007 -13.3318 6.26644 1.11135 1.87239e-006 -9.78929e-007 2.99999 -8.02888 -4.95144 -0.697669 178.396 1.84901 -0.602753 180 7.01564e-015 179 178.294 6.1172 179.71 -1.25426e-006 -2.5774e-006 0.0356502 -17.9104 67.5873 19.1924 8.1291 25.2331 -3.48459 -177.676 1.42243 2.41244 4.54188e-006 -4.6773e-006 -1.04741 -2.64649 -7.27129 0.116146 -1.70935e-007 -6.67351e-007 -0.112762 19.3516 68.8558 -20.263 -8.13708 25.3476 3.32096 
49.7508 100.331 10.7398 0.0820226 -0.106587 1.4715 0.1353 -2.10495 0.0144818 0.268887 -0.208445 0.00653767 0.268875 1.43662 0.00204425 -4.02854 22.3806 2.76088 -0.524272 -1.25619 1.41217 67.7442 -3.33743 -2.81654 106.815 19.2351 7.80796 -1.90939e-006 1.78988e-007 9.68047e-006 16.6207 2.71827 -0.436556 -3.82681e-006 -8.36257e-007 -3.00499 8.02905 -4.95144 0.697702 -65.7707 -2.6642 2.30339 -106.309 14.6799 -3.86016 -3.64406e-006 -1.29827e-006 7.34065e-007 -13.3347 6.29417 1.11513 1.87239e-006 -9.78929e-007 2.99999 -8.02888 -4.95144 -0.697669 178.396 1.85549 -0.603922 180 7.01564e-015 179 178.295 6.11522 179.709 -1.25426e-006 -2.5774e-006 0.0356502 -17.9049 67.5834 19.1881 8.1291 25.2331 -3.48459 -177.677 1.43182 2.4144 4.54188e-006 -4.6773e-006 -1.04741 -2.64516 -7.27483 0.116465 -1.70935e-007 -6.67351e-007 -0.113048 19.3494 68.8537 -20.2608 -8.13707 25.3476 3.32084 
49.7494 100.331 10.7358 0.0814825 -0.102681 1.47335 0.136084 -2.10251 0.0148336 0.271623 -0.203335 0.0091734 0.27158 1.44173 0.00463534 -4.02787 22.4089 2.75156 -0.531856 -1.2924 1.40096 67.7294 -3.34319 -2.81831 106.825 19.2233 7.72458 -1.90939e-006 1.78988e-007 9.68047e-006 16.6736 2.81143 -0.449909 -3.82681e-006 -8.36257e-007 -3.00499 8.02905 -4.95144 0.697702 -65.7898 -2.64492 2.29474 -106.27 14.6825 -3.86752 -3.64406e-006 -1.29827e-006 7.34065e-007 -13.3386 6.32405 1.11921 1.87239e-006 -9.78929e-007 2.99999 -8.02888 -4.95144 -0.697669 178.396 1.86225 -0.60514 180 7.01564e-015 179 178.296 6.11354 179.709 -1.25426e-006 -2.5774e-006 0.0356502 -17.8994 67.5796 19.184 8.1291 25.2331 -3.48459 -177.678 1.44142 2.41635 4.54188e-006 -4.6773e-006 -1.04741 -2.64388 -7.27836 0.116776 -1.70935e-007 -6.67351e-007 -0.113321 19.3473 68.8515 -20.2585 -8.13707 25.3476 3.32073 
49.7588 100.331 10.7408 0.0809798 -0.098543 1.47533 0.136868 -2.10007 0.0152058 0.274304 -0.198251 0.0117918 0.274231 1.44682 0.00720979 -4.0276 22.4362 2.74245 -0.538536 -1.32741 1.38996 67.7142 -3.34905 -2.8201 106.835 19.211 7.64026 -1.90939e-006 1.78988e-007 9.68047e-006 16.7269 2.90574 -0.463499 -3.82681e-006 -8.36257e-007 -3.00499 8.02905 -4.95144 0.697702 -65.8085 -2.62604 2.28629 -106.23 14.6842 -3.87309 -3.64406e-006 -1.29827e-006 7.34065e-007 -13.3441 6.35688 1.12369 1.87239e-006 -9.78929e-007 2.99999 -8.02888 -4.95144 -0.697669 178.396 1.86941 -0.606427 180 7.01564e-015 179 178.297 6.11229 179.709 -1.25426e-006 -2.5774e-006 0.0356502 -17.8941 67.5761 19.1801 8.1291 25.2331 -3.48459 -177.679 1.45133 2.41828 4.54188e-006 -4.6773e-006 -1.04741 -2.64265 -7.28189 0.117075 -1.70935e-007 -6.67351e-007 -0.113574 19.3452 68.8492 -20.2562 -8.13707 25.3476 3.32064 
49.7661 100.329 10.7359 0.0805247 -0.0941101 1.47748 0.13765 -2.09764 0.0156039 0.276917 -0.193204 0.0143882 0.276814 1.45187 0.00976305 -4.02783 22.4624 2.73358 -0.544063 -1.3609 1.37925 67.6983 -3.35502 -2.82192 106.846 19.1981 7.55473 -1.90939e-006 1.78988e-007 9.68047e-006 16.7807 3.00151 -0.477391 -3.82681e-006 -8.36257e-007 -3.00499 8.02905 -4.95144 0.697702 -65.8269 -2.60769 2.27809 -106.189 14.6847 -3.87636 -3.64406e-006 -1.29827e-006 7.34065e-007 -13.3516 6.39346 1.12869 1.87239e-006 -9.78929e-007 2.99999 -8.02888 -4.95144 -0.697669 178.395 1.87707 -0.607802 180 7.01564e-015 179 178.299 6.11156 179.709 -1.25426e-006 -2.5774e-006 0.0356502 -17.889 67.5729 19.1766 8.1291 25.2331 -3.48459 -177.68 1.46163 2.4202 4.54188e-006 -4.6773e-006 -1.04741 -2.64149 -7.2854 0.117359 -1.70935e-007 -6.67351e-007 -0.113803 19.3431 68.8469 -20.2539 -8.13707 25.3476 3.32056 
